<?xml version="1.0" standalone="no"?><svg xmlns="http://www.w3.org/2000/svg" viewBox="0 0 1440 320"><path fill="#031B23" fill-opacity="1" d="M0,128L30,122.7C60,117,120,107,180,117.3C240,128,300,160,360,154.7C420,149,480,107,540,85.3C600,64,660,64,720,96C780,128,840,192,900,202.7C960,213,1020,171,1080,154.7C1140,139,1200,149,1260,144C1320,139,1380,117,1410,106.7L1440,96L1440,320L1410,320C1380,320,1320,320,1260,320C1200,320,1140,320,1080,320C1020,320,960,320,900,320C840,320,780,320,720,320C660,320,600,320,540,320C480,320,420,320,360,320C300,320,240,320,180,320C120,320,60,320,30,320L0,320Z"></path></svg>